<?xml version="1.0" encoding="utf-8"?>
<svg viewBox="0 0 500 500" xmlns="http://www.w3.org/2000/svg">
  <defs>
    <linearGradient x1="100%" y1="50%" x2="0%" y2="50%" id="linearGradient-5">
      <stop stop-color="#818195" offset="0"/>
      <stop stop-color="#a8a9b7" offset="1"/>
    </linearGradient>
    <linearGradient x1="100%" y1="50%" x2="0%" y2="50%" id="linearGradient-4">
      <stop stop-color="#C3C4D4" offset="0"/>
      <stop stop-color="#AEAFC8" offset="1"/>
    </linearGradient>
    <linearGradient x1="50%" y1="0%" x2="50%" y2="100%" id="linearGradient-1">
      <stop stop-color="#EDEEF4" offset="0"/>
      <stop stop-color="#D7D8E6" offset="1"/>
    </linearGradient>
    <linearGradient x1="50%" y1="0%" x2="50%" y2="98.6230799%" id="linearGradient-2">
      <stop stop-color="#DEDEE7" offset="0"/>
      <stop stop-color="#CFD0E8" offset="1"/>
    </linearGradient>
  </defs>
  <g id="binary" transform="matrix(8.403684616088867, 0, 0, 8.403684616088867, -3274.38330078125, -2013.4091796875)">
    <path fill="url(#linearGradient-5)" d="M 426.029 284.035 C 427.686 284.035 429.029 282.692 429.029 281.035 L 429.029 279.035 C 429.029 276.726 426.529 275.282 424.529 276.437 C 423.601 276.973 423.029 277.963 423.029 279.035 L 423.029 281.035 C 423.029 282.692 424.372 284.035 426.029 284.035 Z M 425.029 279.035 C 425.029 278.265 425.862 277.784 426.529 278.169 C 426.838 278.348 427.029 278.678 427.029 279.035 L 427.029 281.035 C 427.029 281.805 426.196 282.286 425.529 281.901 C 425.22 281.722 425.029 281.392 425.029 281.035 L 425.029 279.035 Z"/>
    <path fill="url(#linearGradient-4)" d="M 432.014 284.027 C 431.462 284.027 431.014 283.579 431.014 283.027 L 431.014 277.027 C 431.014 276.257 431.847 275.776 432.514 276.161 C 432.823 276.34 433.014 276.67 433.014 277.027 L 433.014 283.027 C 433.014 283.579 432.566 284.027 432.014 284.027 Z"/>
    <path fill="url(#linearGradient-5)" d="M 441.037 279.03 C 441.037 276.721 438.537 275.277 436.537 276.432 C 435.609 276.968 435.037 277.958 435.037 279.03 L 435.037 281.03 C 435.037 283.339 437.537 284.783 439.537 283.628 C 440.465 283.092 441.037 282.102 441.037 281.03 L 441.037 279.03 Z M 439.037 281.03 C 439.037 281.8 438.204 282.281 437.537 281.896 C 437.228 281.717 437.037 281.387 437.037 281.03 L 437.037 279.03 C 437.037 278.26 437.87 277.779 438.537 278.164 C 438.846 278.343 439.037 278.673 439.037 279.03 L 439.037 281.03 Z"/>
    <path fill="url(#linearGradient-4)" d="M 445.018 277.049 L 445.018 283.049 C 445.018 283.819 444.185 284.3 443.518 283.915 C 443.209 283.736 443.018 283.406 443.018 283.049 L 443.018 277.049 C 443.018 276.279 443.851 275.798 444.518 276.183 C 444.827 276.362 445.018 276.692 445.018 277.049 Z"/>
    <path fill="url(#linearGradient-5)" d="M 429.028 291.016 L 429.028 289.016 C 429.028 286.707 426.528 285.263 424.528 286.418 C 423.6 286.954 423.028 287.944 423.028 289.016 L 423.028 291.016 C 423.028 293.325 425.528 294.769 427.528 293.614 C 428.456 293.078 429.028 292.088 429.028 291.016 Z M 425.028 291.016 L 425.028 289.016 C 425.028 288.246 425.861 287.765 426.528 288.15 C 426.837 288.329 427.028 288.659 427.028 289.016 L 427.028 291.016 C 427.028 291.786 426.195 292.267 425.528 291.882 C 425.219 291.703 425.028 291.373 425.028 291.016 Z"/>
    <path fill="url(#linearGradient-5)" d="M 437.058 289.025 C 437.058 286.716 434.558 285.272 432.558 286.427 C 431.63 286.963 431.058 287.953 431.058 289.025 L 431.058 291.025 C 431.058 293.334 433.558 294.778 435.558 293.623 C 436.486 293.087 437.058 292.097 437.058 291.025 L 437.058 289.025 Z M 435.058 291.025 C 435.058 291.795 434.225 292.276 433.558 291.891 C 433.249 291.712 433.058 291.382 433.058 291.025 L 433.058 289.025 C 433.058 288.255 433.891 287.774 434.558 288.159 C 434.867 288.338 435.058 288.668 435.058 289.025 L 435.058 291.025 Z"/>
    <path fill="url(#linearGradient-4)" d="M 440.023 294.042 C 439.471 294.042 439.023 293.594 439.023 293.042 L 439.023 287.042 C 439.023 286.272 439.856 285.791 440.523 286.176 C 440.832 286.355 441.023 286.685 441.023 287.042 L 441.023 293.042 C 441.023 293.594 440.575 294.042 440.023 294.042 Z"/>
    <path fill="url(#linearGradient-4)" d="M 443.99 286.039 C 444.542 286.039 444.99 286.487 444.99 287.039 L 444.99 293.039 C 444.99 293.809 444.157 294.29 443.49 293.905 C 443.181 293.726 442.99 293.396 442.99 293.039 L 442.99 287.039 C 442.99 286.487 443.438 286.039 443.99 286.039 Z"/>
  </g>
  <g id="wrench" style="transform-origin: 113.565px 143.85px;" transform="matrix(0.829036951065, -0.559193015099, 0.559193015099, 0.829036951065, 10.538321517824, -7.408937088517)">
    <path fill="url(#linearGradient-5)" d="M 113.564 119.158 C 103.293 119.158 93.811 115.998 85.909 110.467 C 91.046 122.319 93.811 134.961 93.811 147.998 L 93.811 238.866 C 93.811 249.928 102.503 258.62 113.564 258.62 C 124.627 258.62 133.319 249.928 133.319 238.866 L 133.319 147.603 C 133.319 134.566 136.084 121.924 141.219 110.072 C 133.319 115.602 123.837 119.158 113.564 119.158"/>
    <g transform="matrix(0.447548, 0, 0, 0.447548, -1.205185, 29.080637)">
      <path fill="url(#linearGradient-1)" d="M309.407,0v82.097c0,3.531-2.648,7.945-6.179,8.828c-30.014,8.828-62.676,8.828-93.572,0c-3.531-1.766-6.179-5.297-6.179-8.828V0c-31.779,18.538-52.966,55.614-52.966,95.338c0,58.262,47.669,105.931,105.931,105.931S362.372,153.6,362.372,95.338C362.372,55.614,341.186,18.538,309.407,0"/>
      <path fill="url(#linearGradient-1)" d="M247.614,414.897h-35.31v17.655h35.31c5.297,0,8.828-3.531,8.828-8.828C256.441,418.428,252.91,414.897,247.614,414.897"/>
      <path fill="url(#linearGradient-1)" d="M256.441,459.034c0-5.297-3.531-8.828-8.828-8.828h-35.31v17.655h35.31C252.91,467.862,256.441,464.331,256.441,459.034"/>
    </g>
  </g>
  <g id="document" stroke="none" stroke-width="1" fill="none" fill-rule="evenodd" transform="matrix(5.811840057373047, 0, 0, 5.811840057373047, 296.6535339355469, 40.15423202514648)">
    <path d="M21.017693,0 C21.5041785,0 21.9739852,0.177316999 22.3391528,0.498752565 L26.3214599,4.00414329 C26.7528128,4.38383791 27,4.9307314 27,5.50539073 L27,29 C27,30.6568542 25.6568542,32 24,32 L3,32 C1.34314575,32 0,30.6568542 0,29 L0,3 C0,1.34314575 1.34314575,0 3,0 L21.017693,0 Z" id="paper" fill="url(#linearGradient-1)"/>
    <path d="M21.017693,0 C21.5041785,0 21.9739852,0.177316999 22.3391528,0.498752565 L26.3214599,4.00414329 C26.7528128,4.38383791 27,4.9307314 27,5.50539073 L27,7 L24,7 C22.3431458,7 21,5.65685425 21,4 L21,0 L21.017693,0 Z" fill="url(#linearGradient-2)"/>
    <path d="M19,11 C19.5522847,11 20,11.4477153 20,12 C20,12.5522847 19.5522847,13 19,13 L8,13 C7.44771525,13 7,12.5522847 7,12 C7,11.4477153 7.44771525,11 8,11 L19,11 Z" fill="url(#linearGradient-4)"/>
    <path d="M19,15 C19.5522847,15 20,15.4477153 20,16 C20,16.5522847 19.5522847,17 19,17 L8,17 C7.44771525,17 7,16.5522847 7,16 C7,15.4477153 7.44771525,15 8,15 L19,15 Z" fill="url(#linearGradient-4)"/>
    <path d="M19,19 C19.5522847,19 20,19.4477153 20,20 C20,20.5522847 19.5522847,21 19,21 L8,21 C7.44771525,21 7,20.5522847 7,20 C7,19.4477153 7.44771525,19 8,19 L19,19 Z" fill="url(#linearGradient-4)"/>
  </g>
  <g id="gear" transform="matrix(1, 0, 0, 1, -11.940977096557617, 2.39524507522583)">
    <path fill="url(#linearGradient-2)" d="M 218.093 364.685 L 202.558 364.685 C 200.944 358.451 198.464 352.572 195.26 347.18 L 206.852 335.59 C 209.066 333.375 209.075 329.756 206.852 327.532 L 190.669 311.348 C 188.444 309.123 184.836 309.123 182.611 311.348 L 171.021 322.939 C 165.63 319.736 159.75 317.257 153.516 315.642 L 153.516 300.107 C 153.516 296.961 150.951 294.409 147.817 294.409 L 125.025 294.409 C 121.891 294.409 119.326 296.961 119.326 300.107 L 119.326 315.642 C 113.093 317.257 107.212 319.735 101.821 322.938 L 90.231 311.348 C 88.006 309.123 84.397 309.123 82.172 311.348 L 65.99 327.532 C 63.765 329.756 63.765 333.364 65.99 335.59 L 77.58 347.18 C 74.378 352.572 71.898 358.451 70.283 364.685 L 54.748 364.685 C 51.615 364.685 49.05 367.238 49.05 370.384 L 49.05 393.176 C 49.05 396.321 51.604 398.874 54.748 398.874 L 70.284 398.874 C 71.898 405.108 74.378 410.987 77.582 416.378 L 65.99 427.97 C 63.765 430.195 63.765 433.802 65.99 436.028 L 82.173 452.211 C 84.4 454.438 88.003 454.437 90.232 452.211 L 101.821 440.62 C 107.213 443.824 113.093 446.302 119.327 447.917 L 119.327 463.452 C 119.327 466.597 121.88 469.151 125.026 469.151 L 147.817 469.151 C 150.943 469.151 153.516 466.604 153.516 463.452 L 153.516 447.917 C 159.75 446.303 165.63 443.824 171.022 440.62 L 182.611 452.211 C 184.838 454.438 188.441 454.437 190.67 452.211 L 206.853 436.028 C 209.066 433.813 209.076 430.194 206.853 427.97 L 195.261 416.378 C 198.465 410.986 200.944 405.108 202.559 398.874 L 218.095 398.874 C 221.239 398.874 223.793 396.321 223.793 393.176 L 223.793 370.384 C 223.792 367.257 221.246 364.685 218.093 364.685 Z M 136.42 410.27 C 120.694 410.259 107.94 397.507 107.93 381.779 C 107.94 366.053 120.694 353.299 136.42 353.289 C 152.148 353.299 164.902 366.053 164.912 381.779 C 164.902 397.507 152.148 410.261 136.42 410.27 Z"/>
    <path fill="url(#linearGradient-4)" d="M 164.912 381.779 C 164.902 397.507 152.148 410.261 136.42 410.27 L 136.42 469.151 L 147.817 469.151 C 150.943 469.151 153.516 466.604 153.516 463.452 L 153.516 447.917 C 159.749 446.303 165.628 443.824 171.021 440.62 L 182.611 452.211 C 184.837 454.438 188.441 454.437 190.669 452.211 L 206.852 436.028 C 209.066 433.813 209.076 430.193 206.852 427.97 L 195.261 416.378 C 198.464 410.986 200.944 405.108 202.559 398.874 L 218.095 398.874 C 221.239 398.874 223.792 396.32 223.792 393.176 L 223.792 370.384 C 223.792 367.257 221.246 364.685 218.095 364.685 L 202.559 364.685 C 200.944 358.451 198.464 352.572 195.261 347.18 L 206.852 335.59 C 209.066 333.375 209.076 329.755 206.852 327.532 L 190.669 311.348 C 188.444 309.123 184.836 309.123 182.611 311.348 L 171.021 322.939 C 165.63 319.736 159.75 317.257 153.516 315.642 L 153.516 300.107 C 153.516 296.961 150.951 294.409 147.817 294.409 L 136.42 294.409 L 136.42 353.289 C 152.148 353.299 164.902 366.053 164.912 381.779 Z"/>
  </g>
  <g id="frame">
    <rect x="246.101" y="-2.966" width="3.149" height="504.182" style="fill: rgb(195, 199, 203);" transform="matrix(1, 0, 0, 1, 0, -7.105427357601002e-15)"/>
    <rect x="368.588" y="-42.008" width="3.149" height="504.182" style="fill: rgb(195, 199, 203); transform-origin: 370.163px 210.083px;" transform="matrix(0, -1, 1, 0, -119.864120483402, 58.235626220708)"/>
    <rect x="1.226" y="1.468" width="496.969" height="496.595" rx="20" ry="20" style="fill-opacity: 0; fill: none; stroke: rgb(195, 199, 203); stroke-width: 3px;"/>
  </g>
</svg>