<svg id="icons" viewBox="0 0 64 64" xmlns="http://www.w3.org/2000/svg">
<defs>
	<linearGradient x1="50%" y1="0%" x2="50%" y2="100%" id="linearGradient-1">
	<stop stop-color="#EDEEF4" offset="0"/>
	<stop stop-color="#D7D8E6" offset="1"/>
	</linearGradient>
	<linearGradient x1="50%" y1="0%" x2="50%" y2="98.6230799%" id="linearGradient-2">
	<stop stop-color="#DEDEE7" offset="0"/>
	<stop stop-color="#CFD0E8" offset="1"/>
	</linearGradient>
	<linearGradient x1="100%" y1="50%" x2="0%" y2="50%" id="linearGradient-3">
	<stop stop-color="#bbbcd7" offset="0"/>
	<stop stop-color="#d0d1e2" offset="1"/>
	</linearGradient>
	<linearGradient x1="100%" y1="50%" x2="0%" y2="50%" id="linearGradient-4">
	<stop stop-color="#C3C4D4" offset="0"/>
	<stop stop-color="#AEAFC8" offset="1"/>
	</linearGradient>
	<linearGradient x1="100%" y1="50%" x2="0%" y2="50%" id="linearGradient-5">
	<stop stop-color="#818195" offset="0"/>
	<stop stop-color="#a8a9b7" offset="1"/>
	</linearGradient>
	<linearGradient x1="100%" y1="50%" x2="0%" y2="50%" id="linearGradient-6">
	<stop stop-color="#747486" offset="0"/>
	<stop stop-color="#9a9ba8" offset="1"/>
	</linearGradient>
</defs>
  <path d="m38 50.5v4h-12v-4-5h6 6z" fill="url(#linearGradient-6)"/>
  <path d="m62.98 39.5h-61.98v4a1.9931 1.9931 0 0 0 2 2h58a1.99947 1.99947 0 0 0 2-2v-4z" fill="url(#linearGradient-5)"/>
  <path d="m46.99 58.5v.24a1.75407 1.75407 0 0 1 -1.75 1.76h-26.49a1.75407 1.75407 0 0 1 -1.75-1.76v-.24s.99-4.47 1.57-6.52a2.03414 2.03414 0 0 1 1.96-1.48h5.47v4h12v-4h5.46a2.03414 2.03414 0 0 1 1.96 1.48c.58 2.05 1.57 6.52 1.57 6.52z" fill="url(#linearGradient-5)"/>
  <path d="m63 5.5v34h-62v-34a1.99944 1.99944 0 0 1 2-2h58a2.00588 2.00588 0 0 1 2 2z" fill="url(#linearGradient-3)"/>
  <path d="m61.00488 46.501h-58a3.00308 3.00308 0 0 1 -3-2.999v-38.001a3.00328 3.00328 0 0 1 3-3h58a3.00328 3.00328 0 0 1 3 3v38.001a3.00308 3.00308 0 0 1 -3 2.999zm-58-42a1.00067 1.00067 0 0 0 -1 1v38.001a1.00047 1.00047 0 0 0 1 .999h58a1.00047 1.00047 0 0 0 1-.999v-38.001a1.00067 1.00067 0 0 0 -1-1z" fill="url(#linearGradient-5)"/>
  <path d="m35.00488 44h-6a1 1 0 0 1 0-2h6a1 1 0 0 1 0 2z" fill="#4d5662"/>
  <g fill="url(#linearGradient-1)">
    <path d="m8.00488 18.501a1 1 0 0 1 -.707-1.707l5-5a.99989.99989 0 0 1 1.41403 1.414l-5 5a.99676.99676 0 0 1 -.70703.293z"/>
    <path d="m49.00488 33.499a1 1 0 0 1 -.707-1.707l5-5.001a.99989.99989 0 1 1 1.41406 1.41406l-5 5.001a.99672.99672 0 0 1 -.70706.29294z"/>
    <path d="m8.00488 24.5a1 1 0 0 1 -.707-1.707l12.001-12.001a.99989.99989 0 0 1 1.41406 1.41406l-12.00103 12.00094a.99676.99676 0 0 1 -.70703.293z"/>
    <path d="m42.00488 34.5a1 1 0 0 1 -.707-1.707l12.001-12.001a.99989.99989 0 0 1 1.41406 1.41406l-12.001 12.001a.99676.99676 0 0 1 -.70706.29294z"/>
  </g>
</svg>